<?xml version="1.0" encoding="utf-8"?>
<!-- Generator: Adobe Illustrator 15.1.0, SVG Export Plug-In . SVG Version: 6.00 Build 0)  -->
<!DOCTYPE svg PUBLIC "-//W3C//DTD SVG 1.1//EN" "http://www.w3.org/Graphics/SVG/1.1/DTD/svg11.dtd">
<svg version="1.1" id="Layer_1" xmlns="http://www.w3.org/2000/svg" xmlns:xlink="http://www.w3.org/1999/xlink" x="0px" y="0px"
	 width="141.732px" height="141.73px" viewBox="0 0 141.732 141.73" enable-background="new 0 0 141.732 141.73"
	 xml:space="preserve">
<path fill="#FFFFFF" stroke="#F8981D" stroke-width="2" stroke-linejoin="round" stroke-miterlimit="10" d="M65.81,21.496
	c-4.52,0.449-8.829,1.497-12.839,3.084c-2.632,0.988-5.146,2.246-7.51,3.652c-2.753,1.646-5.296,3.533-7.661,5.629
	C26.37,44.101,19.846,59.489,21.522,75.926c2.783,27.244,27.142,47.095,54.403,44.31c27.23-2.785,47.073-27.185,44.289-54.43
	C117.428,38.562,93.041,18.713,65.81,21.496L65.81,21.496z M65.12,30.807c0.599-0.09,1.167-0.149,1.705-0.149
	c0,0,0.299,17.454-8.498,21.196c-7.092,3.054-19.722-3.172-19.722-3.172c2.843-4.012,7.303-8.232,12.18-11.557
	c1.585-1.077,3.202-2.065,4.816-2.934C58.867,32.455,62.158,31.227,65.12,30.807L65.12,30.807z M81.639,31.974
	c9.695,3.684,21.964,14.163,24.508,22.873c0,0-16.849,4.612-22.683-2.964C78.766,45.747,81.639,31.974,81.639,31.974L81.639,31.974z
	 M32.384,62.992c0,0,16.788,4.91,17.744,14.4c0.779,7.695-8.887,17.934-8.887,17.934C34.927,87.122,29.989,71.736,32.384,62.992
	L32.384,62.992z M109.17,71.047c1.406-0.151,2.305-0.151,2.305-0.151c-1.347,10.301-8.738,24.67-16.608,29.162
	c0,0-8.38-15.36-2.333-22.753C96.181,72.811,105.01,71.435,109.17,71.047L109.17,71.047z M65.659,93.26
	c1.465-0.238,2.962-0.179,4.398,0.3c7.332,2.335,12.808,15.3,12.808,15.3c-10.055,2.514-26.095,0.867-33.127-4.851
	C49.74,104.009,57.7,94.488,65.659,93.26L65.659,93.26z"/>
<path fill="#FFFFFF" stroke="#F8981D" stroke-width="0.325" stroke-linejoin="round" stroke-miterlimit="10" d="M75.175,57.693
	L75.175,57.693c0.179,1.677-1.018,3.143-2.694,3.323c-1.646,0.18-3.142-1.048-3.292-2.694l0,0l0,0
	c-0.179-1.677,1.019-3.143,2.693-3.323C73.528,54.819,75.025,56.045,75.175,57.693L75.175,57.693L75.175,57.693z"/>
<path fill="#F8981D" d="M74.157,57.813L74.157,57.813c0.12,1.107-0.658,2.066-1.766,2.186c-1.108,0.118-2.094-0.688-2.184-1.796l0,0
	c-0.03,0-0.03,0-0.03,0c-0.089-1.078,0.69-2.066,1.796-2.186C73.081,55.895,74.068,56.705,74.157,57.813L74.157,57.813
	L74.157,57.813z"/>
<path fill="#FFFFFF" stroke="#F8981D" stroke-width="0.325" stroke-linejoin="round" stroke-miterlimit="10" d="M87.055,71.884
	L87.055,71.884c0.181,1.646-1.018,3.144-2.693,3.324c-1.645,0.148-3.142-1.048-3.321-2.697v-0.028l0,0
	c-0.15-1.646,1.047-3.143,2.723-3.293C85.41,69.01,86.906,70.207,87.055,71.884L87.055,71.884L87.055,71.884z"/>
<path fill="#F8981D" d="M86.038,71.974L86.038,71.974c0.121,1.107-0.688,2.096-1.765,2.216c-1.106,0.09-2.095-0.688-2.216-1.797l0,0
	l0,0c-0.089-1.107,0.689-2.096,1.795-2.185C84.962,70.088,85.947,70.896,86.038,71.974L86.038,71.974L86.038,71.974z"/>
<path fill="#FFFFFF" stroke="#F8981D" stroke-width="0.325" stroke-linejoin="round" stroke-miterlimit="10" d="M72.512,83.079
	L72.512,83.079c0.18,1.679-1.017,3.174-2.693,3.324c-1.646,0.18-3.143-1.018-3.293-2.693l0,0c0,0,0,0-0.03,0
	c-0.15-1.678,1.048-3.144,2.723-3.325C70.867,80.207,72.362,81.434,72.512,83.079L72.512,83.079L72.512,83.079z"/>
<path fill="#F8981D" d="M71.496,83.201L71.496,83.201c0.119,1.108-0.688,2.066-1.767,2.187c-1.107,0.119-2.096-0.69-2.215-1.767
	v-0.028l0,0c-0.09-1.079,0.688-2.066,1.795-2.187C70.417,81.284,71.405,82.094,71.496,83.201L71.496,83.201L71.496,83.201z"/>
<path fill="#FFFFFF" stroke="#F8981D" stroke-width="0.325" stroke-linejoin="round" stroke-miterlimit="10" d="M60.811,69.608
	L60.811,69.608c0.179,1.676-1.017,3.142-2.693,3.323c-1.646,0.149-3.142-1.048-3.322-2.695l0,0c0-0.029,0-0.029,0-0.029
	c-0.15-1.648,1.048-3.145,2.693-3.293C59.167,66.735,60.633,67.933,60.811,69.608L60.811,69.608L60.811,69.608z"/>
<path fill="#F8981D" d="M59.794,69.698L59.794,69.698c0.12,1.108-0.689,2.096-1.766,2.217c-1.107,0.119-2.095-0.689-2.216-1.796l0,0
	l0,0c-0.119-1.108,0.689-2.096,1.796-2.186C58.717,67.811,59.675,68.62,59.794,69.698L59.794,69.698L59.794,69.698z"/>
</svg>
