<?xml version="1.0" encoding="utf-8"?>
<!-- Generator: Adobe Illustrator 15.1.0, SVG Export Plug-In . SVG Version: 6.00 Build 0)  -->
<!DOCTYPE svg PUBLIC "-//W3C//DTD SVG 1.1//EN" "http://www.w3.org/Graphics/SVG/1.1/DTD/svg11.dtd">
<svg version="1.1" id="Layer_1" xmlns="http://www.w3.org/2000/svg" xmlns:xlink="http://www.w3.org/1999/xlink" x="0px" y="0px"
	 width="99.2px" height="99.3px" viewBox="21.3 21.2 99.2 99.3" enable-background="new 21.3 21.2 99.2 99.3" xml:space="preserve">
<path fill="#FFFFFF" d="M120.2,65.8C117.4,38.6,93,18.7,65.8,21.5C61.3,21.9,57,23,53,24.6c-2.6,1-5.1,2.2-7.5,3.7
	c-2.8,1.6-5.3,3.5-7.7,5.6c-11.4,10.2-18,25.6-16.3,42.1c2.8,27.2,27.1,47.1,54.4,44.3C103.2,117.5,123,93.1,120.2,65.8z M81.6,32
	c9.7,3.7,22,14.2,24.5,22.9c0,0-16.8,4.6-22.7-3C78.8,45.7,81.6,32,81.6,32z M72,56c1.1-0.1,2.1,0.7,2.2,1.8
	c0.1,1.1-0.7,2.1-1.8,2.2c-1.1,0.1-2.1-0.7-2.2-1.8c0,0,0,0,0,0C70.1,57.1,70.9,56.1,72,56z M67.5,83.6c-0.1-1.1,0.7-2.1,1.8-2.2
	c1.1-0.1,2.1,0.7,2.2,1.8c0.1,1.1-0.7,2.1-1.8,2.2C68.6,85.5,67.6,84.7,67.5,83.6L67.5,83.6z M50.8,37.1c1.6-1.1,3.2-2.1,4.8-2.9
	c3.3-1.7,6.6-3,9.5-3.4c0.6-0.1,1.2-0.1,1.7-0.1c0,0,0.3,17.5-8.5,21.2c-7.1,3.1-19.7-3.2-19.7-3.2C41.4,44.7,45.9,40.4,50.8,37.1z
	 M58,71.9c-1.1,0.1-2.1-0.7-2.2-1.8c-0.1-1.1,0.7-2.1,1.8-2.2c1.1-0.1,2.1,0.7,2.2,1.8C59.9,70.8,59.1,71.8,58,71.9z M32.4,63
	c0,0,16.8,4.9,17.7,14.4c0.8,7.7-8.9,17.9-8.9,17.9C34.9,87.1,30,71.7,32.4,63z M49.7,104c0,0,8-9.5,15.9-10.7
	c1.5-0.2,3-0.2,4.4,0.3c7.3,2.3,12.8,15.3,12.8,15.3C72.8,111.4,56.8,109.7,49.7,104z M84.3,74.2c-1.1,0.1-2.1-0.7-2.2-1.8
	c-0.1-1.1,0.7-2.1,1.8-2.2c1.1-0.1,2.1,0.7,2.2,1.8C86.2,73.1,85.3,74.1,84.3,74.2z M94.9,100.1c0,0-8.4-15.4-2.3-22.8
	c3.6-4.5,12.5-5.9,16.6-6.3c1.4-0.2,2.3-0.2,2.3-0.2C110.1,81.2,102.7,95.6,94.9,100.1z"/>
</svg>
