<?xml version="1.0" encoding="utf-8"?>
<!-- Generator: Adobe Illustrator 15.1.0, SVG Export Plug-In . SVG Version: 6.00 Build 0)  -->
<!DOCTYPE svg PUBLIC "-//W3C//DTD SVG 1.1//EN" "http://www.w3.org/Graphics/SVG/1.1/DTD/svg11.dtd">
<svg version="1.1" id="Layer_1" xmlns="http://www.w3.org/2000/svg" xmlns:xlink="http://www.w3.org/1999/xlink" x="0px" y="0px"
	 width="91.7px" height="60px" viewBox="0 0 91.7 60" enable-background="new 0 0 91.7 60" xml:space="preserve">
<g>
	<g>
		<path fill="#FFFFFF" d="M65.3,59.4c-2.7,0-4.7-0.6-6-1.8c-0.9-0.8-1.4-1.8-1.7-3.1c-0.2,1.1-0.5,2-1.1,2.7
			c-1.2,1.5-3.3,2.2-6.3,2.2c-1.2,0-2.3-0.1-3.5-0.4c-1.1-0.3-2.1-0.8-3-1.5c-0.2-0.1-0.2-0.3-0.2-0.5v-3.3
			c-0.1,1.5-0.5,2.7-1.1,3.5c-1.2,1.5-3.3,2.2-6.3,2.2c-1.2,0-2.4-0.1-3.5-0.4c-1.1-0.3-2.1-0.8-3.1-1.5c-0.2-0.1-0.2-0.3-0.2-0.5
			v-3.9c0-0.3,0.3-0.6,0.6-0.6h2.4c-0.6-0.2-1.1-0.5-1.5-0.9c-0.7-0.5-1.1-1.2-1.4-1.9c-0.2-0.6-0.3-1.4-0.3-2.4v-1.6
			c0-2.1,0.5-3.7,1.5-4.6c1.2-1.1,3-1.6,5.5-1.6c2.7,0,4.5,0.5,5.7,1.4c0.9,0.7,1.4,1.8,1.6,3.2c0.2-1.3,0.7-2.3,1.4-3.1
			c1.1-1.1,2.9-1.6,5.5-1.6c2.6,0,4.5,0.5,5.7,1.4c1.2,1,1.8,2.6,1.8,5v5.7c0.1-0.5,0.3-0.9,0.5-1.3c0.3-0.6,0.7-1,1.3-1.4
			c-0.4-0.3-0.8-0.7-1-1.2c-0.4-0.8-0.6-1.7-0.6-2.7c0-2.1,0.8-3.6,2.3-4.5c1.2-0.7,2.8-1.1,4.9-1.1c2.7,0,4.6,0.5,5.8,1.6
			c1,0.9,1.6,2.2,1.6,3.8c0,1.1-0.2,2-0.5,2.7c-0.3,0.5-0.6,0.9-1,1.3c0.5,0.4,0.9,0.8,1.2,1.4c0.4,0.8,0.7,1.7,0.7,2.9
			c0,2.3-0.8,4-2.3,5C69.4,59,67.6,59.4,65.3,59.4L65.3,59.4z M65.2,51.3c-0.3,0-0.4,0.1-0.4,0.3c-0.1,0.1-0.1,0.4-0.1,1.1
			c0,0.8,0.1,1.1,0.1,1.3c0.1,0.3,0.2,0.3,0.5,0.3c0.3,0,0.3-0.1,0.4-0.2c0-0.1,0.1-0.5,0.1-1v-0.4c0-0.8-0.1-1-0.1-1.1
			C65.6,51.4,65.5,51.3,65.2,51.3L65.2,51.3z M50.1,54.2c0.1,0,0.2,0,0.3,0c0.4,0,0.4-0.1,0.5-0.2c0.1-0.2,0.1-0.6,0.1-0.9v-0.5
			c-0.4,0.1-0.8,0.2-1.2,0.2c0,0.1,0.1,0.2,0.1,0.3c0,0.2,0.1,0.6,0.2,1C50,54.1,50.1,54.1,50.1,54.2L50.1,54.2z M35.9,54.2
			c0.1,0,0.2,0,0.3,0c0.4,0,0.4-0.1,0.5-0.2c0.1-0.2,0.1-0.6,0.1-0.9v-0.5c-0.4,0.1-0.8,0.2-1.2,0.2c0,0.1,0.1,0.2,0.1,0.3
			c0,0.2,0.1,0.7,0.2,1C35.7,54.1,35.8,54.1,35.9,54.2L35.9,54.2z M43.5,49.6v3.1c0,0.1,0,0.1,0,0.2c0.1-0.2,0.3-0.4,0.6-0.4h2.4
			c-0.6-0.2-1.1-0.5-1.6-0.9C44.2,51.1,43.7,50.4,43.5,49.6C43.5,49.6,43.5,49.6,43.5,49.6L43.5,49.6z M50.5,44.5
			c-0.2,0-0.3,0-0.4,0.3c0,0.1-0.1,0.5-0.1,1v1c0,0.5,0.1,0.9,0.1,1c0.1,0.2,0.2,0.2,0.4,0.2c0.2,0,0.3-0.1,0.4-0.3
			c0.1-0.2,0.1-0.5,0.1-1v-1c0-0.5,0-0.8-0.1-1C50.8,44.6,50.7,44.5,50.5,44.5L50.5,44.5z M36.2,44.5c-0.2,0-0.3,0-0.4,0.3
			c0,0.1-0.1,0.4-0.1,1v1c0,0.6,0.1,0.9,0.1,1c0.1,0.2,0.2,0.2,0.4,0.2c0.2,0,0.3-0.1,0.4-0.3c0.1-0.2,0.1-0.5,0.1-1v-1
			c0-0.5,0-0.8-0.1-1C36.5,44.6,36.4,44.5,36.2,44.5L36.2,44.5z M65.2,44.5c-0.3,0-0.4,0.1-0.4,0.1c-0.1,0.2-0.2,0.6-0.2,1
			c0,0.7,0.1,1,0.2,1c0.1,0.1,0.2,0.1,0.4,0.1c0.3,0,0.3-0.1,0.4-0.1c0.1-0.1,0.2-0.4,0.2-1c0-0.8-0.1-1-0.1-1
			C65.6,44.6,65.5,44.5,65.2,44.5L65.2,44.5z M27.6,59h-6.8c-0.3,0-0.6-0.3-0.6-0.6v-3.2c0-0.2,0.1-0.4,0.3-0.5
			c0.2-0.1,0.2-0.2,0.2-0.2c0.1-0.2,0.1-0.4,0.1-0.7v-0.3v-8.1v-0.3c0-0.3,0-0.6-0.1-0.8c0,0-0.1-0.1-0.3-0.3
			c-0.2-0.1-0.3-0.3-0.3-0.5v-3.2c0-0.3,0.3-0.6,0.6-0.6H27c0.3,0,0.6,0.3,0.6,0.6v13c0,0.4,0,0.8,0,0.9c0,0,0,0.1,0,0.1
			c0,0,0,0.1,0.2,0.2c0.2,0.1,0.3,0.3,0.3,0.5v3.2C28.2,58.7,27.9,59,27.6,59L27.6,59z"/>
		<path fill="#F39723" d="M65.1,40.1c2.5,0,4.3,0.5,5.4,1.5c0.9,0.8,1.4,1.9,1.4,3.4c0,1-0.1,1.8-0.4,2.4c-0.4,0.7-1,1.2-1.8,1.6
			c0.9,0.3,1.6,0.9,2,1.6c0.4,0.7,0.6,1.6,0.6,2.6c0,2.1-0.7,3.6-2,4.5c-1.1,0.7-2.8,1.1-5,1.1c-2.5,0-4.4-0.5-5.5-1.6
			c-1-0.9-1.6-2.2-1.6-3.9c0-1,0.2-1.9,0.7-2.7c0.4-0.7,1.1-1.3,2-1.6c-0.9-0.4-1.4-0.9-1.8-1.5c-0.3-0.6-0.5-1.4-0.5-2.3
			c0-1.9,0.7-3.2,2-4C61.7,40.4,63.2,40.1,65.1,40.1 M65.2,47.5c0.4,0,0.7-0.1,0.9-0.4c0.2-0.2,0.3-0.7,0.3-1.4
			c0-0.7-0.1-1.2-0.3-1.4c-0.2-0.3-0.5-0.4-0.9-0.4c-0.5,0-0.8,0.2-0.9,0.5c-0.1,0.3-0.2,0.7-0.2,1.3c0,0.7,0.1,1.2,0.3,1.4
			C64.6,47.4,64.9,47.5,65.2,47.5 M65.2,54.9c0.4,0,0.8-0.2,1-0.6c0.1-0.3,0.2-0.7,0.2-1.2v-0.4c0-0.6,0-1-0.1-1.3
			c-0.2-0.4-0.5-0.7-1-0.7c-0.5,0-0.8,0.2-1,0.6c-0.1,0.3-0.1,0.7-0.1,1.3c0,0.7,0,1.2,0.1,1.5C64.4,54.6,64.7,54.9,65.2,54.9
			 M50.3,40.1c2.5,0,4.3,0.4,5.3,1.3s1.6,2.4,1.6,4.5v6.9c0,1.8-0.3,3.2-1,4.1c-1,1.3-3,2-5.8,2c-1.2,0-2.3-0.2-3.4-0.4
			c-1-0.3-2-0.8-2.8-1.4v-3.9h5.2c0,0.2,0.1,0.6,0.2,1.1c0.1,0.2,0.2,0.4,0.4,0.5c0.2,0.1,0.4,0.1,0.6,0.1c0.5,0,0.9-0.2,1-0.6
			c0.1-0.3,0.1-0.6,0.1-1.2v-1.3c-1,0.4-1.9,0.5-2.8,0.5c-1.4,0-2.6-0.4-3.5-1.2c-0.6-0.4-1-1-1.2-1.7c-0.1-0.5-0.2-1.2-0.2-2.2
			v-1.6c0-1.9,0.4-3.3,1.3-4.2C46.1,40.5,47.9,40.1,50.3,40.1 M50.5,48.7c0.5,0,0.8-0.2,1-0.6c0.1-0.3,0.1-0.7,0.1-1.2v-1
			c0-0.6,0-1-0.1-1.2c-0.1-0.4-0.5-0.7-1-0.7c-0.5,0-0.8,0.2-1,0.7c-0.1,0.3-0.1,0.7-0.1,1.2v1c0,0.5,0.1,0.9,0.1,1.2
			C49.7,48.5,50,48.7,50.5,48.7 M36,40.1c2.5,0,4.3,0.4,5.3,1.3c1,0.9,1.6,2.4,1.6,4.5v6.9c0,1.8-0.3,3.2-1,4.1c-1,1.3-3,2-5.8,2
			c-1.2,0-2.3-0.2-3.3-0.4c-1.1-0.3-2-0.8-2.9-1.4v-3.9H35c0,0.2,0.1,0.6,0.2,1.1c0.1,0.2,0.2,0.4,0.4,0.5c0.2,0.1,0.4,0.1,0.6,0.1
			c0.5,0,0.9-0.2,1-0.6c0.1-0.3,0.1-0.6,0.1-1.2v-1.3c-1,0.4-1.9,0.5-2.8,0.5c-1.4,0-2.6-0.4-3.5-1.2c-0.6-0.4-1-1-1.2-1.7
			c-0.1-0.5-0.2-1.2-0.2-2.2v-1.6c0-1.9,0.4-3.3,1.3-4.2C31.9,40.5,33.6,40.1,36,40.1 M36.2,48.7c0.5,0,0.8-0.2,1-0.6
			c0.1-0.3,0.1-0.7,0.1-1.2v-1c0-0.6,0-1-0.1-1.2c-0.1-0.4-0.5-0.7-1-0.7c-0.4,0-0.8,0.2-1,0.7c-0.1,0.3-0.1,0.7-0.1,1.2v1
			c0,0.5,0,0.9,0.1,1.2C35.4,48.5,35.7,48.7,36.2,48.7 M27,40.4v13c0,0.5,0,0.9,0.1,1.1c0,0.2,0.2,0.4,0.5,0.6v3.2h-6.8v-3.2
			c0.2-0.2,0.4-0.3,0.5-0.6c0.1-0.3,0.1-0.5,0.1-0.9v-0.3v-8.1v-0.3c0-0.4,0-0.7-0.1-0.9c-0.1-0.2-0.2-0.4-0.5-0.6v-3.2H27
			 M65.1,38.8c-2.2,0-3.9,0.4-5.2,1.2c-0.8,0.5-1.6,1.2-2.1,2.4c-0.3-0.8-0.8-1.5-1.4-2c-1.3-1-3.3-1.6-6.1-1.6
			c-2.7,0-4.7,0.6-5.9,1.8c-0.4,0.4-0.7,0.9-1,1.4c-0.3-0.6-0.7-1.2-1.2-1.6c-1.3-1.1-3.3-1.6-6.1-1.6c-2.7,0-4.7,0.6-5.9,1.7
			c-1.2,1.1-1.7,2.8-1.7,5.1v1.6c0,1,0.1,1.9,0.3,2.5c0,0,0,0,0,0.1c0.3,0.8,0.7,1.5,1.4,2h-0.2c-0.7,0-1.2,0.5-1.2,1.2v1.4
			c-0.1-0.1-0.2-0.2-0.3-0.3c0,0,0,0,0,0c0-0.1,0-0.4,0-0.7v-13c0-0.7-0.5-1.2-1.2-1.2h-6.2c-0.7,0-1.2,0.5-1.2,1.2v3.2
			c0,0.4,0.2,0.8,0.5,1c0,0,0,0,0,0c0,0.1,0,0.3,0,0.5v0.3v8.1v0.3c0,0.2,0,0.3,0,0.4c0,0,0,0,0,0c-0.3,0.2-0.5,0.6-0.5,1v3.2
			c0,0.7,0.5,1.2,1.2,1.2h6.8c0.7,0,1.2-0.5,1.2-1.2v-0.7c0.1,0.1,0.2,0.2,0.3,0.2c1,0.8,2.1,1.3,3.3,1.6c1.2,0.3,2.4,0.5,3.7,0.5
			c3.2,0,5.5-0.8,6.8-2.4c0-0.1,0.1-0.1,0.1-0.2c0.1,0.2,0.2,0.4,0.4,0.6c1,0.8,2.1,1.3,3.2,1.6c0,0,0,0,0,0
			c1.2,0.3,2.4,0.4,3.7,0.4c3.2,0,5.5-0.8,6.8-2.4c0.2-0.3,0.5-0.6,0.6-1c0.3,0.6,0.7,1.1,1.2,1.5c1.4,1.3,3.5,1.9,6.4,1.9
			c2.5,0,4.4-0.4,5.7-1.3c1.7-1.1,2.6-3,2.6-5.6c0-1.3-0.2-2.3-0.7-3.2c-0.2-0.4-0.5-0.8-0.9-1.1c0.2-0.3,0.5-0.6,0.6-0.9
			c0,0,0,0,0,0c0.4-0.8,0.6-1.8,0.6-2.9c0-1.8-0.6-3.3-1.8-4.3C70,39.4,68,38.8,65.1,38.8L65.1,38.8z M58.4,49.1v-0.5
			c0.1,0.1,0.2,0.2,0.2,0.3C58.5,49,58.5,49,58.4,49.1L58.4,49.1z M44.1,51.9v-0.2c0.1,0.1,0.1,0.1,0.2,0.2H44.1L44.1,51.9z"/>
	</g>
	<g>
		<path fill="#FFFFFF" d="M6.4,27.8H1.2c-0.2,0-0.4-0.1-0.5-0.3c-0.1-0.2-0.1-0.4-0.1-0.5l4-12.2c0.1-0.2,0.3-0.4,0.6-0.4h21.2
			c1,0,1.9,0.1,2.7,0.4c0.8,0.2,1.4,0.6,2,1.1c0.6,0.5,1,1.1,1.2,1.8c0.2,0.7,0.2,1.4-0.1,2.3c-0.3,0.8-0.7,1.5-1.2,2.1
			c-0.5,0.5-1.2,1.1-2,1.6c-0.7,0.4-1.5,0.8-2.5,1.1c-0.8,0.3-1.7,0.4-2.7,0.4H7.6l-0.7,2.2C6.8,27.6,6.6,27.8,6.4,27.8L6.4,27.8z
			 M9.3,20.2h16.5l0.2-0.7H9.5L9.3,20.2L9.3,20.2z"/>
		<path fill="#F39723" d="M26.4,15c0.9,0,1.7,0.1,2.5,0.4c0.7,0.2,1.3,0.6,1.8,1c0.5,0.4,0.9,0.9,1,1.5c0.2,0.6,0.1,1.2-0.1,1.9
			c-0.2,0.7-0.6,1.3-1.1,1.9c-0.6,0.6-1.2,1.1-1.9,1.5c-0.7,0.4-1.5,0.8-2.3,1c-0.8,0.3-1.7,0.4-2.5,0.4H7.2l-0.9,2.6H1.2l4-12.2
			H26.4 M8.5,20.8h17.8l0.6-1.9H9.1L8.5,20.8 M26.4,13.8H5.2c-0.5,0-1,0.3-1.2,0.8l-4,12.2c-0.1,0.4-0.1,0.8,0.2,1.1
			c0.2,0.3,0.6,0.5,1,0.5h5.1c0.5,0,1-0.3,1.2-0.8l0.6-1.8h15.8c1,0,2-0.1,2.9-0.4c1-0.3,1.9-0.7,2.6-1.2c0.7-0.4,1.4-1,2.1-1.7
			c0,0,0,0,0.1-0.1c0.6-0.7,1.1-1.5,1.4-2.3c0.3-1,0.3-1.9,0.1-2.7c-0.3-0.8-0.7-1.5-1.4-2c-0.6-0.5-1.4-0.9-2.2-1.2
			C28.4,13.9,27.5,13.8,26.4,13.8L26.4,13.8z"/>
	</g>
	<g>
		<path fill="#FFFFFF" d="M56.9,27.8h-5.8c-0.2,0-0.4-0.1-0.5-0.3l-3.7-6.3l-1.2-2l-2.8,2.2l-7.6,6.3c-0.1,0.1-0.2,0.1-0.4,0.1h-5.9
			c-0.3,0-0.5-0.2-0.6-0.4c-0.1-0.2,0-0.5,0.2-0.7l11.1-9.2c0.4-0.4,0.9-0.7,1.3-1l0.3-0.2c0.7-0.5,1.2-0.8,1.7-1
			c0.5-0.2,1.1-0.4,1.8-0.6c0.6-0.1,1.3-0.2,2.2-0.2c0.7,0,1.4,0,2.1,0.2c0.6,0.2,1.1,0.4,1.5,0.7c0.4,0.3,0.7,0.6,1,1.2
			c0.2,0.3,0.4,0.6,0.6,1l0.2,0.4l5.1,9.1c0.1,0.2,0.1,0.4,0,0.6C57.3,27.6,57.1,27.8,56.9,27.8L56.9,27.8z"/>
		<path fill="#F39723" d="M46.9,15c0.8,0,1.4,0,1.9,0.2c0.5,0.1,0.9,0.3,1.3,0.6s0.6,0.6,0.9,1c0.3,0.4,0.5,0.8,0.8,1.3l5.1,9.1
			h-5.8l-3.7-6.3l-1.6-2.6l-3.3,2.6l-7.7,6.3h-6L39.9,18c0.6-0.5,1.1-0.9,1.6-1.3c0.5-0.4,1-0.7,1.6-1c0.5-0.3,1.1-0.4,1.7-0.6
			C45.5,15,46.2,15,46.9,15 M46.9,13.8c-0.7,0-1.5,0-2.4,0.2c-0.8,0.2-1.4,0.4-2,0.7c-0.5,0.2-1.1,0.6-1.8,1.1c0,0,0,0,0,0L40.5,16
			c-0.4,0.3-0.9,0.7-1.4,1.1L28,26.2c-0.4,0.3-0.5,0.9-0.4,1.4c0.2,0.5,0.6,0.8,1.1,0.8h6c0.3,0,0.6-0.1,0.8-0.3l7.7-6.3l2.2-1.7
			l0.9,1.4l3.7,6.3c0.2,0.4,0.6,0.6,1,0.6h5.8c0.4,0,0.8-0.2,1.1-0.6c0.2-0.4,0.2-0.8,0-1.2l-5.1-9.1c0,0,0,0,0,0l-0.2-0.3
			c-0.2-0.4-0.4-0.7-0.6-1c-0.3-0.4-0.6-0.9-1.1-1.3c-0.4-0.3-0.9-0.6-1.7-0.8C48.4,13.8,47.7,13.8,46.9,13.8L46.9,13.8z"/>
	</g>
	<g>
		<path fill="#FFFFFF" d="M86,27.8H58c-0.2,0-0.4-0.1-0.5-0.2s-0.1-0.4-0.1-0.5l1.2-3.8c0.1-0.3,0.3-0.4,0.6-0.4h3.2l6.4-5.3
			c0.6-0.5,1.1-0.9,1.6-1.3c0.6-0.4,1.1-0.8,1.6-1c0.6-0.3,1.2-0.5,1.9-0.6c0.8-0.2,1.6-0.2,2.2-0.2c0.9,0,1.6,0.1,2,0.2
			c0.6,0.2,1.1,0.4,1.5,0.7c0.4,0.3,0.7,0.7,1,1.2l0.2,0.4c0.2,0.3,0.4,0.6,0.6,1l2.8,5h2.9c0.2,0,0.4,0.1,0.5,0.2
			c0.1,0.2,0.1,0.4,0.1,0.5l-1.2,3.8C86.6,27.6,86.3,27.8,86,27.8L86,27.8z M70.2,22.8H77L76,21.2l-1.2-2L72,21.3L70.2,22.8
			L70.2,22.8z"/>
		<path fill="#F39723" d="M76.1,15c0.7,0,1.4,0,1.9,0.2c0.5,0.1,0.9,0.3,1.3,0.6c0.3,0.3,0.6,0.6,0.9,1c0.2,0.4,0.5,0.8,0.8,1.3
			l3,5.3h3.3l-1.2,3.8H58l1.2-3.8h3.4l6.5-5.4c0.6-0.5,1.1-0.9,1.6-1.3c0.5-0.4,1-0.7,1.6-1c0.6-0.3,1.1-0.4,1.7-0.6
			C74.7,15,75.3,15,76.1,15 M68.5,23.4h9.5l-1.5-2.5L75,18.3l-3.3,2.6L68.5,23.4 M76.1,13.8c-0.7,0-1.5,0-2.4,0.2
			c-0.7,0.2-1.4,0.4-2,0.7c-0.6,0.3-1.1,0.6-1.8,1.1c-0.6,0.4-1.1,0.8-1.7,1.3l-6.2,5.1h-3c-0.5,0-1,0.3-1.2,0.9l-1.2,3.8
			c-0.1,0.4,0,0.8,0.2,1.1c0.2,0.3,0.6,0.5,1,0.5h28c0.5,0,1-0.3,1.2-0.9l1.2-3.8c0.1-0.4,0-0.8-0.2-1.1c-0.2-0.3-0.6-0.5-1-0.5
			h-2.6L82,17.5c-0.2-0.3-0.4-0.7-0.6-1c-0.1-0.1-0.2-0.3-0.2-0.4c-0.4-0.6-0.7-1-1.2-1.3c-0.5-0.4-1-0.6-1.7-0.8
			C77.7,13.8,76.8,13.8,76.1,13.8L76.1,13.8z M71.9,22.2l0.5-0.4l2.2-1.7l0.9,1.4l0.4,0.7H71.9L71.9,22.2z"/>
	</g>
	<g>
		<path fill="#FFFFFF" d="M62.4,13h-2.5c-0.2,0-0.4-0.1-0.5-0.3c-0.1-0.2-0.1-0.4-0.1-0.5l2.4-7.5h-7.2L52,12.5
			C52,12.8,51.7,13,51.5,13H49c-0.2,0-0.4-0.1-0.5-0.3c-0.1-0.2-0.1-0.4-0.1-0.5L52,1.1c0.1-0.3,0.3-0.4,0.6-0.4H66
			c0.2,0,0.4,0.1,0.5,0.3c0.1,0.2,0.1,0.4,0.1,0.5L63,12.5C62.9,12.8,62.7,13,62.4,13L62.4,13z"/>
		<path fill="#F39723" d="M66,1.3l-3.5,11.1h-2.5l2.6-8.3h-8.4l-2.7,8.3H49l3.5-11.1H66 M66,0H52.6c-0.5,0-1,0.3-1.2,0.8L47.9,12
			c-0.1,0.4-0.1,0.8,0.2,1.1c0.2,0.3,0.6,0.5,1,0.5h2.4c0.5,0,1-0.3,1.2-0.8L55,5.3h5.9L58.8,12c-0.1,0.4-0.1,0.8,0.2,1.1
			s0.6,0.5,1,0.5h2.5c0.5,0,1-0.3,1.2-0.8l3.5-11.1c0.1-0.4,0.1-0.8-0.2-1.1C66.7,0.2,66.4,0,66,0L66,0z"/>
	</g>
	<g>
		<path fill="#FFFFFF" d="M77.1,13h-2.5c-0.2,0-0.4-0.1-0.5-0.3C74,12.5,74,12.3,74,12.2l2.4-7.5h-7.2l-2.5,7.8
			c-0.1,0.3-0.3,0.4-0.6,0.4h-2.4c-0.2,0-0.4-0.1-0.5-0.3c-0.1-0.2-0.1-0.4-0.1-0.5l3.5-11.1c0.1-0.3,0.3-0.4,0.6-0.4h13.4
			c0.2,0,0.4,0.1,0.5,0.3c0.1,0.2,0.1,0.4,0.1,0.5l-3.5,11.1C77.6,12.8,77.4,13,77.1,13L77.1,13z"/>
		<path fill="#F39723" d="M80.6,1.3l-3.5,11.1h-2.5l2.6-8.3h-8.5l-2.6,8.3h-2.4l3.5-11.1H80.6 M80.6,0H67.2c-0.5,0-1,0.3-1.2,0.8
			L62.5,12c-0.1,0.4-0.1,0.8,0.2,1.1c0.2,0.3,0.6,0.5,1,0.5h2.4c0.5,0,1-0.3,1.2-0.8l2.4-7.4h5.9L73.4,12c-0.1,0.4-0.1,0.8,0.2,1.1
			c0.2,0.3,0.6,0.5,1,0.5h2.5c0.5,0,1-0.3,1.2-0.8l3.5-11.1c0.1-0.4,0.1-0.8-0.2-1.1C81.4,0.2,81,0,80.6,0L80.6,0z"/>
	</g>
	<g>
		<path fill="#FFFFFF" d="M90.5,12.9h-2.6c-0.3,0-0.5-0.2-0.6-0.4L86.5,10h-3.8l-1.6,2.6c-0.1,0.2-0.3,0.3-0.5,0.3h-2.6
			c-0.2,0-0.4-0.1-0.5-0.3c-0.1-0.2-0.1-0.4,0-0.6l5-8.3C82.6,3.3,82.8,3,83,2.8l0.2-0.2c0.2-0.3,0.5-0.7,0.8-1
			c0.3-0.3,0.6-0.5,1-0.7c0.3-0.1,0.7-0.2,1.1-0.2c0.4,0,0.8,0.1,1.1,0.3c0.3,0.2,0.6,0.4,0.8,0.8c0.2,0.3,0.3,0.6,0.4,1
			c0.1,0.4,0.2,0.8,0.4,1.2l2.2,8.3c0.1,0.2,0,0.4-0.1,0.5C90.8,12.8,90.7,12.9,90.5,12.9L90.5,12.9z M85.2,6h0.3l-0.1-0.3L85.2,6
			L85.2,6z"/>
		<path fill="#F39723" d="M86.1,1.3c0.3,0,0.6,0.1,0.9,0.2c0.2,0.1,0.4,0.3,0.6,0.6c0.1,0.2,0.3,0.5,0.4,0.9C88,3.2,88.1,3.6,88.2,4
			l2.2,8.2h-2.6L87,9.4h-4.6l-1.8,2.9h-2.6l5-8.3c0.3-0.4,0.5-0.8,0.7-1.1c0.2-0.3,0.4-0.6,0.7-0.9c0.2-0.3,0.5-0.4,0.8-0.6
			C85.4,1.3,85.8,1.3,86.1,1.3 M84,6.6h2.2l-0.7-2.3L84,6.6 M86.1,0c-0.5,0-1,0.1-1.4,0.3c-0.4,0.2-0.8,0.5-1.2,0.8
			c-0.4,0.3-0.6,0.7-0.9,1l-0.2,0.3c-0.2,0.3-0.4,0.5-0.6,0.8l-5,8.3c-0.2,0.4-0.2,0.8,0,1.2c0.2,0.4,0.6,0.6,1.1,0.6h2.6
			c0.4,0,0.8-0.2,1-0.6l1.4-2.3h3l0.7,2c0.2,0.5,0.6,0.8,1.2,0.8h2.6c0.4,0,0.7-0.2,1-0.5c0.2-0.3,0.3-0.7,0.2-1.1l-2.2-8.2
			c0,0,0,0,0-0.1c-0.1-0.4-0.3-0.8-0.4-1.2c-0.1-0.4-0.3-0.8-0.5-1.1c-0.3-0.5-0.6-0.8-1.1-1C87.1,0.1,86.6,0,86.1,0L86.1,0z"/>
	</g>
	<g>
		<path fill="#FFFFFF" d="M8.4,12.9H6c-0.2,0-0.4-0.1-0.5-0.3c-0.1-0.2-0.1-0.4-0.1-0.5l2.4-7.7L9,1c0.1-0.2,0.3-0.4,0.6-0.4h2.9
			h10.2c0.2,0,0.4,0.1,0.5,0.2c0.1,0.2,0.1,0.4,0.1,0.5l-0.9,2.9c-0.1,0.3-0.3,0.4-0.6,0.4H11.5L9,12.5C8.9,12.7,8.7,12.9,8.4,12.9
			L8.4,12.9z"/>
		<path fill="#F39723" d="M22.6,1.2l-0.9,2.9H11l-2.6,8.1H6l2.4-7.7c0.1-0.4,1.1-3.4,1.1-3.4s2.5,0,2.9,0L22.6,1.2 M22.6,0H12.4H9.5
			C9,0,8.6,0.3,8.4,0.8L7.3,4.2l-2.4,7.7C4.7,12.3,4.8,12.7,5,13c0.2,0.3,0.6,0.5,1,0.5h2.4c0.5,0,1-0.3,1.2-0.8l2.3-7.3h9.7
			c0.5,0,1-0.3,1.2-0.9l0.9-2.9c0.1-0.4,0-0.8-0.2-1.1S23,0,22.6,0L22.6,0z"/>
	</g>
	<g>
		<path fill="#FFFFFF" d="M22.5,12.9H20c-0.2,0-0.4-0.1-0.5-0.3c-0.1-0.2-0.1-0.4-0.1-0.5l3.5-11c0.1-0.3,0.3-0.4,0.6-0.4h10.3
			c0.6,0,1,0.1,1.5,0.3c0.5,0.2,0.8,0.6,1,0.9c0.3,0.4,0.4,0.8,0.5,1.4c0.1,0.4,0,1-0.2,1.6c-0.3,0.7-0.5,1.2-0.8,1.6
			c-0.3,0.4-0.7,0.8-1.1,1.2C34.4,8,34,8.2,33.4,8.5c-0.5,0.2-1,0.3-1.5,0.3h-7.7l-1.2,3.6C23,12.7,22.8,12.9,22.5,12.9L22.5,12.9z
			 M25.5,4.8h7.3l0.1-0.2h-7.3L25.5,4.8L25.5,4.8z"/>
		<path fill="#F39723" d="M33.8,1.3c0.4,0,0.8,0.1,1.2,0.3c0.4,0.1,0.6,0.4,0.9,0.7c0.2,0.3,0.3,0.7,0.4,1.1c0.1,0.4,0,0.9-0.1,1.4
			c-0.2,0.5-0.4,1-0.7,1.4c-0.3,0.4-0.6,0.8-1,1.1c-0.4,0.3-0.8,0.6-1.2,0.7c-0.4,0.2-0.9,0.3-1.2,0.3h-8.1l-1.3,4.1H20l3.5-11
			L33.8,1.3 M24.7,5.5h8.6L33.8,4h-8.6L24.7,5.5 M33.8,0H23.5c-0.5,0-1,0.3-1.2,0.8l-3.5,11c-0.1,0.4-0.1,0.8,0.2,1.1
			c0.2,0.3,0.6,0.5,1,0.5h2.5c0.5,0,1-0.3,1.2-0.8l1-3.2h7.2c0.5,0,1.2-0.1,1.7-0.4c0.6-0.3,1.1-0.6,1.5-0.9
			c0.4-0.4,0.8-0.8,1.2-1.3c0.3-0.4,0.6-1,0.9-1.7c0,0,0-0.1,0-0.1c0.2-0.7,0.3-1.3,0.2-1.9c-0.1-0.6-0.3-1.2-0.6-1.6
			c-0.3-0.3-0.7-0.8-1.3-1.1C35,0.2,34.5,0,33.8,0L33.8,0z"/>
	</g>
	<g>
		<path fill="#FFFFFF" d="M45.1,12.9h-10c-0.2,0-0.4-0.1-0.5-0.3c-0.1-0.2-0.1-0.4-0.1-0.5l0.9-2.8C35.5,9,35.7,8.8,36,8.8h10.2l0,0
			H39c-0.5,0-0.9-0.1-1.3-0.3c-0.5-0.3-0.8-0.6-1-0.9c-0.2-0.4-0.4-0.8-0.4-1.3c0-0.6,0.1-1.1,0.2-1.6l1.1-3.5
			c0.1-0.3,0.3-0.4,0.6-0.4h2.2c0.2,0,0.4,0.1,0.5,0.3c0.1,0.2,0.1,0.4,0.1,0.5l-1.1,3.3h7.6l1.2-3.7c0.1-0.3,0.3-0.4,0.6-0.4h2.5
			c0.2,0,0.4,0.1,0.5,0.3c0.1,0.2,0.1,0.4,0.1,0.5L49.8,9c-0.2,0.5-0.4,1-0.8,1.5c-0.3,0.5-0.7,0.9-1.1,1.2
			c-0.4,0.4-0.9,0.7-1.4,0.9C46.1,12.8,45.6,12.9,45.1,12.9L45.1,12.9z"/>
		<path fill="#F39723" d="M51.6,1.3l-2.4,7.5c-0.1,0.5-0.4,0.9-0.7,1.3c-0.3,0.4-0.6,0.8-1,1.1c-0.4,0.3-0.8,0.6-1.2,0.8
			c-0.4,0.2-0.9,0.3-1.2,0.3h-10L36,9.4h10.6L47,8.2h-8c-0.4,0-0.8-0.1-1.1-0.3c-0.3-0.2-0.6-0.4-0.8-0.7c-0.2-0.3-0.3-0.7-0.3-1.1
			c0-0.4,0-0.9,0.2-1.4l1.1-3.5h2.2L39,5.4h8.9l1.3-4.1H51.6 M51.6,0.1h-2.5c-0.5,0-1,0.3-1.2,0.9l-1,3.3h-6.3l0.8-2.5
			c0.1-0.4,0.1-0.8-0.2-1.1c-0.2-0.3-0.6-0.5-1-0.5h-2.2c-0.5,0-1,0.3-1.2,0.8l-1.1,3.5c-0.2,0.6-0.2,1.1-0.2,1.7c0,0,0,0.1,0,0.1
			c0.1,0.6,0.2,1.2,0.5,1.6c0.1,0.1,0.2,0.3,0.3,0.4H36c-0.5,0-1,0.3-1.2,0.9l-0.9,2.8c-0.1,0.4,0,0.8,0.2,1.1
			c0.2,0.3,0.6,0.5,1,0.5h10c0.6,0,1.2-0.1,1.7-0.4c0.5-0.2,1-0.5,1.5-0.9c0.5-0.4,0.9-0.8,1.2-1.4c0.4-0.5,0.6-1.1,0.8-1.7l2.4-7.5
			c0.1-0.4,0.1-0.8-0.2-1.1C52.4,0.3,52,0.1,51.6,0.1L51.6,0.1z"/>
	</g>
</g>
</svg>
